<svg width="52" height="125" viewBox="0 0 52 125" fill="none" xmlns="http://www.w3.org/2000/svg">
<path d="M38.1142 48.9942C30.7961 36.4894 23.9042 48.7099 23.9042 48.7099C21.0645 52.592 18.8551 56.8978 17.3575 61.4685C15.6726 67.2134 15.6827 85.8285 16.515 91.3704C19.56 92.5478 26.3707 92.1926 29.5476 91.2892V68.9592C29.5598 68.8968 29.5933 68.8406 29.6424 68.8002C29.6914 68.7597 29.753 68.7377 29.8166 68.7377C29.8802 68.7377 29.9418 68.7597 29.9908 68.8002C30.0399 68.8406 30.0734 68.8968 30.0856 68.9592L30.2378 113.305C35.5816 113.503 40.9108 112.626 45.9094 110.726C45.9094 110.726 44.9959 60.758 38.1142 48.9942Z" fill="#F3A71C"/>
<path d="M43.2907 36.5299C43.1039 35.8967 42.7935 35.3068 42.3772 34.7943C41.73 34.0425 41.0241 33.3433 40.266 32.7034C40.0801 32.5553 39.9336 32.3635 39.8397 32.1451C39.5251 31.191 40.6416 29.7294 40.4893 28.5622C40.2559 26.8367 39.1597 26.2581 38.0838 25.1213C37.5006 24.5389 37.1199 23.7846 36.9977 22.9696C36.3805 21.7273 35.9039 20.42 35.5767 19.0719C34.7952 16.8694 33.5467 14.4334 31.1818 13.6315C29.8737 13.2126 28.4739 13.1714 27.1435 13.5125C25.813 13.8537 24.6058 14.5634 23.6606 15.5601C22.0366 17.4175 22.3513 19.9449 22.1686 22.2692C22.2738 22.4802 22.3457 22.7061 22.3817 22.9391C22.6964 25.1924 19.7326 25.2939 19.4585 27.0803C19.4223 27.4192 19.4394 27.7617 19.5093 28.0953C19.7399 29.3761 20.2917 30.5774 21.113 31.5869C23.143 34.3274 18.4232 35.7382 18.4435 38.2757C18.5008 39.1904 18.7984 40.0737 19.3063 40.8365C19.8142 41.5992 20.5145 42.2144 21.3363 42.6199C25.3415 44.609 29.9176 45.1299 34.2674 44.0917C37.5154 43.3508 44.4072 40.6508 43.2907 36.5299ZM25.2237 32.3481C25.2237 32.2974 25.2237 32.2365 25.2237 32.1857H25.4064L25.2237 32.3481Z" fill="#56403D"/>
<path d="M21.5393 39.7577L22.8283 50.9937C22.8283 50.9937 32.0851 54.4954 38.9364 50.9937V39.6054" fill="#F5604B"/>
<path d="M43.9911 16.3315C43.6904 18.7067 42.8626 20.9848 41.5684 22.9991C40.2741 25.0133 38.546 26.7129 36.5105 27.9735L37.8199 40.5088C43.6764 36.7431 49.8476 22.7463 50.751 19.0923C49.8616 18.2094 48.8066 17.511 47.6465 17.0373C46.4864 16.5635 45.2441 16.3236 43.9911 16.3315Z" fill="#F5604B"/>
<path d="M10.222 10.3734C8.01948 10.9114 6.51729 12.0685 4.60909 13.2865C5.30944 15.7428 12.9828 34.9263 22.6355 38.9863L23.4069 25.3345C23.4069 25.3345 19.1337 24.9285 10.222 10.3734Z" fill="#F5604B"/>
<path d="M10.1713 11.6219C10.0495 11.3478 9.9277 11.0738 9.81604 10.7896C9.7523 10.6427 9.72781 10.4818 9.74499 10.3227C9.83354 9.89394 9.89456 9.45998 9.92768 9.02346C9.90119 7.63157 9.62264 6.256 9.10553 4.96346C9.04176 4.75769 8.93105 4.56954 8.78214 4.41387C8.63322 4.25819 8.45017 4.13925 8.24742 4.06642C8.04468 3.99359 7.82778 3.96887 7.61384 3.9942C7.3999 4.01952 7.19477 4.0942 7.01464 4.21236L6.63909 3.53231C5.93874 2.29401 5.18764 0.162513 3.59409 0.000113224C3.4712 -0.0020061 3.34963 0.0256544 3.23976 0.080742C3.1299 0.13583 3.035 0.216707 2.96318 0.316449C2.89137 0.416191 2.84477 0.531839 2.82737 0.653507C2.80998 0.775175 2.8223 0.899244 2.86329 1.01511C3.16779 1.81696 3.48243 2.60866 3.80723 3.39021C3.73889 3.31739 3.65635 3.25935 3.5647 3.21967C3.47304 3.18 3.37423 3.15952 3.27436 3.15952C3.17449 3.15952 3.07568 3.18 2.98403 3.21967C2.89238 3.25935 2.80984 3.31739 2.74149 3.39021C2.55422 3.58042 2.42956 3.82332 2.38421 4.08636C2.33886 4.34941 2.37498 4.62002 2.48774 4.86196H2.29489C2.12474 4.77518 1.93766 4.72668 1.74678 4.71986C1.5943 4.72915 1.44559 4.77114 1.31074 4.84294C1.1759 4.91474 1.05808 5.01468 0.965244 5.13601C0.859605 5.28018 0.789773 5.44741 0.761535 5.6239C0.733297 5.80039 0.747459 5.98107 0.802841 6.15101H0.670886C0.518392 6.20726 0.381635 6.29932 0.272125 6.41943C0.162614 6.53954 0.0835581 6.68418 0.0415906 6.8412C-0.0138635 7.05419 -0.0138635 7.27784 0.0415906 7.49082C-0.0396094 8.28252 4.10159 12.1598 4.10159 12.1598L6.55789 14.8496L10.6788 12.8906C10.7397 12.7485 10.222 11.7335 10.1713 11.6219Z" fill="#FBB5AD"/>
<path d="M51.0453 11.8248C51.0238 11.7539 50.9878 11.6881 50.9397 11.6317C50.8915 11.5752 50.8322 11.5294 50.7655 11.497C50.6988 11.4645 50.6261 11.4463 50.552 11.4433C50.4779 11.4404 50.4039 11.4528 50.3348 11.4797C50.3631 11.142 50.3631 10.8025 50.3348 10.4647C50.3348 9.9877 50.2435 9.30765 49.7258 9.10465C49.5754 9.04896 49.411 9.04358 49.2572 9.08934C49.1035 9.13509 48.9687 9.22952 48.8732 9.3584C48.8152 9.04713 48.7303 8.74148 48.6195 8.44489C48.5851 8.3341 48.5165 8.23707 48.4234 8.16776C48.3304 8.09845 48.2178 8.06044 48.1018 8.0592C47.5233 8.0592 47.2289 8.5261 47.0868 9.0742C47.0868 9.02345 46.8737 8.8306 46.8229 8.80015C46.7282 8.73148 46.6151 8.6926 46.4981 8.6885C46.2799 8.67541 46.0641 8.74014 45.8891 8.87119C45.7214 9.03557 45.6202 9.25602 45.6049 9.49034C45.5585 9.87804 45.5585 10.2699 45.6049 10.6576C45.6049 11.1347 45.7064 11.6015 45.7369 12.0786C45.7673 12.5556 45.7369 12.7485 45.7369 13.0936C45.2903 12.2308 44.661 11.1549 43.9302 11.6624C43.1994 12.1699 43.8388 12.8602 44.0418 13.3372C44.4601 14.2832 44.9557 15.193 45.5237 16.0574C45.4468 16.4834 45.3417 16.9039 45.2091 17.316C46.5672 17.8703 47.8804 18.5286 49.1371 19.2851C49.54 17.9373 50.0247 16.6153 50.5886 15.3266C51.1987 14.2659 51.363 13.0065 51.0453 11.8248Z" fill="#FBB5AD"/>
<path d="M25.2237 90.0306L20.5344 91.3399C20.5344 91.4516 19.763 95.674 20.3517 96.3033C21.1006 96.8358 21.8801 97.3238 22.6862 97.7649C22.6807 99.2404 22.7655 100.715 22.94 102.18C23.2184 102.232 23.504 102.232 23.7824 102.18C23.9753 100.647 24.2392 97.5314 24.2392 97.5314C24.2392 97.5314 25.6094 97.0544 25.6906 96.6281C25.7718 96.2018 25.2237 90.0306 25.2237 90.0306Z" fill="#C67445"/>
<path d="M40.6517 109.326L34.7952 110.96C34.7952 111.102 33.8309 116.37 34.5617 117.151C35.2925 117.933 37.5255 118.836 37.4748 118.978C37.4676 120.817 37.5727 122.654 37.7894 124.48C38.125 124.54 38.4688 124.54 38.8044 124.48C39.0379 122.561 39.3728 118.674 39.3728 118.674C39.3728 118.674 41.0882 118.075 41.1795 117.547C41.2709 117.019 40.6517 109.326 40.6517 109.326Z" fill="#C67445"/>
<path d="M20.8085 95.9785C20.8694 96.2221 19.9356 100.881 20.5243 101.054C21.77 101.17 23.0239 101.17 24.2696 101.054C24.505 99.371 24.6473 97.6767 24.6959 95.9785" fill="#56403D"/>
<path d="M20.5243 101.053C19.8311 100.217 19.2415 99.3007 18.7683 98.3231C18.6567 97.6735 20.2401 94.5778 20.5344 94.6692C21.5967 95.202 22.5917 95.8596 23.4982 96.6281" fill="#C67445"/>
<path d="M35.1301 116.695C35.2012 116.999 34.0339 122.785 34.7749 123.049C36.3312 123.194 37.8977 123.194 39.454 123.049C39.6976 123.049 39.9818 116.695 39.9818 116.695" fill="#56403D"/>
<path d="M34.7749 123.049C34.7749 123.049 32.7449 120.46 32.5825 119.638C32.4201 118.816 34.4196 114.959 34.7952 115.071C36.1195 115.736 37.3598 116.558 38.4898 117.517" fill="#C67445"/>
<path d="M29.5476 68.9389L19.2555 66.645L29.0401 74.2778L29.5476 68.9389Z" fill="#56403D"/>
</svg>
