<svg class="illustration"width="406" height="306" viewBox="0 0 406 306" fill="none" xmlns="http://www.w3.org/2000/svg">
<g id="Web development svg 1">
<path id="Vector" d="M184.141 70.2065L20.4725 165.413C18.8831 166.338 17.5665 167.667 16.6563 169.265C15.7462 170.862 15.275 172.673 15.2904 174.511C15.3059 176.35 15.8075 178.152 16.7444 179.735C17.6812 181.317 19.02 182.623 20.6248 183.521L220.976 295.638C223.397 296.993 226.121 297.715 228.896 297.738C231.671 297.761 234.406 297.084 236.85 295.77L390.775 212.987C392.738 211.931 394.385 210.371 395.546 208.468C396.706 206.565 397.339 204.387 397.378 202.158C397.417 199.929 396.862 197.73 395.769 195.787C394.676 193.844 393.086 192.227 391.161 191.103L184.141 70.2065Z" fill="#FFD6A9"/>
<path id="Vector_2" d="M71.05 136.415L50.821 148.169C50.821 148.169 51.9477 165.332 72.6537 162.673L109.975 142.231" fill="url(#paint0_linear)"/>
<path id="Vector_3" d="M93.5323 145.773C105.96 145.773 116.035 140.793 116.035 134.649C116.035 128.505 105.96 123.524 93.5323 123.524C81.1044 123.524 71.0297 128.505 71.0297 134.649C71.0297 140.793 81.1044 145.773 93.5323 145.773Z" fill="#F3A71C"/>
<path id="Vector_4" d="M116.025 105.021V135.268C116.025 135.268 99.2772 150.767 71.0297 135.522V105.072" fill="#F3A71C"/>
<path id="Vector_5" d="M74.3995 115.831C74.3995 115.831 70.6744 110.126 67.1625 113.415C63.6506 116.704 66.7261 128.112 77.0283 129.208V133.817C77.0283 133.817 64.0871 132.061 62.3311 120.439C60.5752 108.817 68.9185 107.02 73.08 110.218" fill="#F3A71C"/>
<path id="Vector_6" d="M201.772 145.276L182.355 154.624C181.623 154.975 181.001 155.519 180.555 156.197C180.109 156.875 179.857 157.662 179.824 158.473C179.792 159.283 179.981 160.088 180.371 160.799C180.762 161.511 181.339 162.102 182.04 162.511L228.07 189.357C229.065 189.938 230.245 190.112 231.364 189.844C232.484 189.575 233.457 188.884 234.079 187.916L245.244 170.519" fill="#56403D"/>
<path id="Vector_7" d="M157.65 203.852L81.2406 163.617L69.5681 171.229L194.17 239.437L211.323 228.222" fill="url(#paint1_linear)"/>
<path id="Vector_8" d="M223.513 241.985L205.324 252.764C205.324 252.764 217.251 264.193 231.136 270.019L248.015 258.996" fill="url(#paint2_linear)"/>
<path id="Vector_9" d="M221.767 234.261V242.767L248.015 259.007L279.511 239.762V232.515" fill="#6DE1FC"/>
<path id="Vector_10" d="M221.767 234.261V242.767L248.015 259.007L279.511 239.762V232.515" fill="#E54C3C"/>
<path id="Vector_11" d="M279.511 232.515L252.765 216.519L221.767 234.261L248.513 250.511L279.511 232.515Z" fill="#F5604B"/>
<path id="Vector_12" d="M307.423 100.291L152.534 11.0624C151.47 10.4477 150.261 10.1249 149.032 10.1268C147.803 10.1286 146.595 10.455 145.533 11.0729C144.47 11.6909 143.589 12.5784 142.979 13.6459C142.369 14.7134 142.052 15.923 142.059 17.1524V109.974C142.051 111.001 142.315 112.012 142.825 112.904C143.335 113.795 144.073 114.536 144.962 115.049L310.062 210.348C310.632 210.678 311.279 210.852 311.937 210.852C312.596 210.853 313.243 210.679 313.813 210.35C314.384 210.021 314.857 209.547 315.186 208.976C315.514 208.405 315.687 207.758 315.685 207.1V114.582C315.685 111.684 314.921 108.838 313.471 106.329C312.02 103.82 309.934 101.737 307.423 100.291Z" fill="#00EE3E"/>
<path id="Vector_13" d="M152.554 18.076L302.774 104.483C304.38 105.407 305.714 106.738 306.641 108.341C307.567 109.945 308.054 111.766 308.052 113.618V183.206C308.051 183.872 307.876 184.527 307.542 185.104C307.209 185.68 306.731 186.16 306.154 186.494C305.578 186.827 304.924 187.004 304.258 187.006C303.592 187.008 302.937 186.836 302.358 186.505L149.205 98.6061C148.632 98.279 148.156 97.8063 147.824 97.236C147.493 96.6656 147.318 96.0178 147.317 95.3581V21.1312C147.324 20.5203 147.489 19.9216 147.796 19.3935C148.103 18.8655 148.542 18.426 149.069 18.1182C149.597 17.8104 150.195 17.6447 150.806 17.6373C151.417 17.6299 152.02 17.7811 152.554 18.076Z" fill="white"/>
<path id="Vector_14" d="M143.42 121.028C146.18 120.571 178.163 140.587 178.163 140.587V148.412L165.049 155.771L129.392 136.212V127.016L143.42 121.028Z" fill="#6DE1FC"/>
<path id="Vector_15" d="M143.42 121.028C146.18 120.571 178.163 140.587 178.163 140.587V148.412L165.049 155.771L129.392 136.212V127.016L143.42 121.028Z" fill="#F1A317"/>
<path id="Vector_16" d="M121.8 140.455L81.2 163.617C80.7762 163.861 80.4242 164.212 80.1794 164.635C79.9347 165.058 79.8058 165.539 79.8058 166.028C79.8058 166.516 79.9347 166.997 80.1794 167.42C80.4242 167.843 80.7762 168.194 81.2 168.438L193.774 233.185C195.14 233.972 196.688 234.387 198.265 234.387C199.842 234.387 201.391 233.972 202.756 233.185L240.667 211.291C241.119 211.04 241.496 210.672 241.759 210.226C242.021 209.78 242.16 209.272 242.16 208.754C242.16 208.236 242.021 207.728 241.759 207.282C241.496 206.836 241.119 206.468 240.667 206.216L126.784 140.434C126.021 140.009 125.162 139.787 124.289 139.791C123.416 139.794 122.559 140.023 121.8 140.455Z" fill="#974C26"/>
<path id="Vector_17" d="M147.804 216.245C147.716 215.71 147.499 215.205 147.172 214.774C146.845 214.342 146.417 213.997 145.927 213.768L139.918 210.297L130.63 204.917L119.537 198.492L107.732 191.651L96.3134 185.044L86.3867 179.299L79.0482 175.046L75.1912 172.813C75.1912 172.894 75.0593 172.894 74.9781 172.874C74.5142 172.752 74.0267 172.754 73.5639 172.879C73.1011 173.004 72.679 173.248 72.3394 173.587C71.9999 173.925 71.7547 174.347 71.6283 174.809C71.5018 175.272 71.4984 175.759 71.6184 176.223C72.2342 177.985 73.3972 179.504 74.9375 180.557C79.4294 183.782 84.1176 186.725 88.9749 189.367V187.632C85.7066 185.845 78.6625 181.806 75.6987 178.761L77.1096 179.583L80.997 181.856L86.8434 185.277L94.1413 189.54L102.383 194.351L111.051 199.426L119.638 204.45L127.636 209.119L134.528 213.179L139.806 216.224C141.42 217.168 143.166 218.447 145.043 218.813C145.396 218.838 145.75 218.79 146.084 218.672C146.417 218.555 146.723 218.37 146.982 218.129C147.241 217.888 147.448 217.596 147.589 217.272C147.731 216.948 147.804 216.598 147.804 216.245Z" fill="#6DE1FC"/>
<path id="Vector_18" d="M147.804 216.245C147.716 215.71 147.499 215.205 147.172 214.774C146.845 214.342 146.417 213.997 145.927 213.768L139.918 210.297L130.63 204.917L119.537 198.492L107.732 191.651L96.3134 185.044L86.3867 179.299L79.0482 175.046L75.1912 172.813C75.1912 172.894 75.0593 172.894 74.9781 172.874C74.5142 172.752 74.0267 172.754 73.5639 172.879C73.1011 173.004 72.679 173.248 72.3394 173.587C71.9999 173.925 71.7547 174.347 71.6283 174.809C71.5018 175.272 71.4984 175.759 71.6184 176.223C72.2342 177.985 73.3972 179.504 74.9375 180.557C79.4294 183.782 84.1176 186.725 88.9749 189.367V187.632C85.7066 185.845 78.6625 181.806 75.6987 178.761L77.1096 179.583L80.997 181.856L86.8434 185.277L94.1413 189.54L102.383 194.351L111.051 199.426L119.638 204.45L127.636 209.119L134.528 213.179L139.806 216.224C141.42 217.168 143.166 218.447 145.043 218.813C145.396 218.838 145.75 218.79 146.084 218.672C146.417 218.555 146.723 218.37 146.982 218.129C147.241 217.888 147.448 217.596 147.589 217.272C147.731 216.948 147.804 216.598 147.804 216.245Z" fill="#999A1C"/>
<path id="Vector_19" d="M215.737 149.332C217.51 148.991 218.63 147.072 218.24 145.046C217.85 143.021 216.097 141.655 214.325 141.996C212.552 142.338 211.431 144.257 211.821 146.282C212.212 148.308 213.965 149.673 215.737 149.332Z" fill="#AB643C"/>
<path id="Vector_20" d="M215.616 67.1107L259.393 92.4857C259.842 92.7456 260.212 93.123 260.462 93.5773C260.713 94.0315 260.834 94.5455 260.814 95.0638L259.302 134.354C259.284 134.845 259.139 135.323 258.881 135.742C258.624 136.16 258.263 136.505 257.833 136.743C257.403 136.981 256.919 137.104 256.428 137.1C255.937 137.096 255.455 136.965 255.029 136.719L212.764 112.43C212.329 112.18 211.967 111.819 211.716 111.385C211.465 110.95 211.333 110.456 211.333 109.954V69.5873C211.331 69.0853 211.462 68.5918 211.712 68.1566C211.963 67.7214 212.323 67.3599 212.758 67.1087C213.192 66.8574 213.685 66.7253 214.187 66.7256C214.689 66.726 215.182 66.8588 215.616 67.1107Z" fill="#A8A93D"/>
<path id="Vector_21" d="M231.298 74.0025C231.301 73.9721 231.301 73.9416 231.298 73.9112L231.136 72.5409C229.441 72.4597 228.476 72.8657 226.781 72.8759C225.944 73.7349 225.388 74.829 225.188 76.0122C225.188 76.8547 225.289 78.0422 226.325 77.9204C226.487 78.702 226.944 79.7271 227.867 79.514L227.989 79.4632C228.05 79.9809 228.213 80.4782 228.71 80.6305C229.207 80.7827 229.522 80.5087 229.725 80.0519C229.908 80.7421 230.232 81.7977 230.933 81.7876C231.887 81.7876 231.948 80.3767 231.704 78.976C231.683 77.3109 231.548 75.6491 231.298 74.0025Z" fill="#FBB5AD"/>
<path id="Vector_22" d="M226.568 75.5555C226.299 76.3136 226.182 77.1171 226.223 77.9205C226.223 78.1742 226.619 78.1742 226.609 77.9205C226.571 77.1513 226.685 76.3822 226.944 75.657C227.025 75.4236 226.649 75.322 226.568 75.5555Z" fill="#56403D"/>
<path id="Vector_23" d="M227.989 76.3269L227.827 79.5851C227.827 79.8388 228.202 79.8388 228.213 79.5851L228.375 76.3269C228.375 76.0833 228.01 76.0833 227.989 76.3269Z" fill="#56403D"/>
<path id="Vector_24" d="M229.39 75.86V80.1738C229.39 80.2249 229.41 80.274 229.446 80.3101C229.483 80.3463 229.532 80.3666 229.583 80.3666C229.634 80.3666 229.683 80.3463 229.719 80.3101C229.755 80.274 229.776 80.2249 229.776 80.1738V75.86C229.776 75.8089 229.755 75.7598 229.719 75.7236C229.683 75.6875 229.634 75.6672 229.583 75.6672C229.532 75.6672 229.483 75.6875 229.446 75.7236C229.41 75.7598 229.39 75.8089 229.39 75.86Z" fill="#56403D"/>
<path id="Vector_25" d="M231.115 72.541C232.376 73.8654 233.134 75.5888 233.257 77.413L231.42 76.2559L231.115 72.541Z" fill="#FBB5AD"/>
<path id="Vector_26" d="M248.188 81.7369C248.188 81.7369 246.828 81.9805 246.797 81.9602C245.62 82.7011 242.626 84.2337 241.377 84.8326C240.636 85.1878 238.799 85.9593 239.205 87.0758C239.418 87.6746 240.017 87.7761 240.788 87.6036C240.733 87.7627 240.736 87.9361 240.795 88.0937C240.854 88.2513 240.967 88.3831 241.113 88.4663C241.353 88.5778 241.619 88.6216 241.882 88.5929C242.145 88.5643 242.395 88.4644 242.605 88.3039C242.645 88.4925 242.749 88.6613 242.9 88.781C243.539 89.3291 244.757 88.7201 245.457 88.3953C245.445 88.5235 245.445 88.6527 245.457 88.781C245.457 89.187 245.863 89.5828 246.239 89.3798C248.036 88.4257 250.857 84.9443 251.679 83.2898C249.974 82.6402 249.863 82.4474 248.188 81.7369Z" fill="#FBB5AD"/>
<path id="Vector_27" d="M246.97 86.6393C246.5 87.2965 245.939 87.8842 245.305 88.3851C245.122 88.5272 245.376 88.7708 245.559 88.6388C246.217 88.1174 246.798 87.5058 247.284 86.822C247.406 86.6393 247.102 86.4566 246.97 86.6393Z" fill="#56403D"/>
<path id="Vector_28" d="M245.904 85.7359C244.869 86.5615 243.813 87.3599 242.737 88.1313C242.555 88.2633 242.737 88.5678 242.92 88.4358C244.05 87.6441 245.129 86.8355 246.158 86.01C246.33 85.8476 246.077 85.5938 245.904 85.7359Z" fill="#56403D"/>
<path id="Vector_29" d="M244.229 85.2894C243.122 86.0703 241.947 86.7497 240.717 87.3194C240.514 87.4209 240.717 87.7253 240.9 87.6238C242.129 87.0542 243.305 86.3748 244.412 85.5938C244.615 85.4619 244.412 85.1574 244.229 85.2894Z" fill="#56403D"/>
<path id="Vector_30" d="M246.797 81.95C246.797 81.95 245.082 80.6914 242.189 82.6199L244.615 84.1322" fill="#FBB5AD"/>
<path id="Vector_31" d="M280.587 146.271C280.546 147.583 280.475 148.893 280.373 150.199C280.373 150.31 280.546 150.31 280.546 150.199C280.648 148.893 280.719 147.583 280.759 146.271C280.769 146.149 280.587 146.149 280.587 146.271Z" fill="#56403D"/>
<path id="Vector_32" d="M282.353 146.605C282.238 147.79 282.096 148.967 281.926 150.138C281.926 150.249 282.079 150.3 282.099 150.138C282.275 148.947 282.42 147.752 282.535 146.555C282.535 146.494 282.363 146.494 282.353 146.605Z" fill="#56403D"/>
<path id="Vector_33" d="M283.896 148.798C283.808 149.623 283.679 150.442 283.51 151.254C283.51 151.366 283.662 151.417 283.682 151.254C283.851 150.429 283.98 149.596 284.068 148.757C284.078 148.686 283.906 148.686 283.896 148.798Z" fill="#56403D"/>
<path id="Vector_34" d="M238.85 143.043C238.043 141.452 237.364 139.799 236.82 138.1C236.739 137.836 236.312 137.948 236.404 138.211C236.944 139.954 237.623 141.652 238.434 143.286C238.596 143.51 238.972 143.286 238.85 143.043Z" fill="#56403D"/>
<path id="Vector_35" d="M237.236 144.058C236.835 143.373 236.476 142.665 236.16 141.936C236.048 141.683 235.673 141.936 235.784 142.16C236.1 142.888 236.46 143.596 236.86 144.281C236.89 144.331 236.938 144.367 236.994 144.381C237.05 144.395 237.11 144.387 237.16 144.357C237.21 144.328 237.246 144.279 237.26 144.223C237.274 144.167 237.266 144.108 237.236 144.058Z" fill="#56403D"/>
<path id="Vector_36" d="M235.673 145.185C235.226 144.605 234.883 143.952 234.658 143.256C234.577 142.992 234.15 143.104 234.242 143.368C234.462 144.097 234.805 144.784 235.257 145.398C235.48 145.631 235.845 145.408 235.673 145.185Z" fill="#56403D"/>
<path id="Vector_37" d="M242.128 143.916C241.709 143.063 241.323 142.194 240.971 141.307C240.87 141.053 240.443 141.165 240.555 141.419C240.92 142.339 241.32 143.242 241.753 144.129C241.874 144.393 242.25 144.17 242.128 143.916Z" fill="#56403D"/>
<path id="Vector_38" d="M145.551 65.6085C145.614 65.5047 145.646 65.3848 145.642 65.2634C145.647 64.6632 145.528 64.0685 145.292 63.5165C145.057 62.9646 144.709 62.4673 144.272 62.056C144.101 61.9013 143.897 61.788 143.676 61.7247C143.454 61.6615 143.221 61.65 142.995 61.6912C142.768 61.7324 142.554 61.8252 142.369 61.9624C142.184 62.0995 142.033 62.2774 141.927 62.4823C140.973 64.4412 143.156 66.4002 144.901 66.6337C145.389 66.6946 145.581 66.2886 145.5 65.9029C145.539 65.8098 145.556 65.7092 145.551 65.6085Z" fill="#FBB5AD"/>
<path id="Vector_39" d="M143.815 99.4689L140.303 97.51L143.227 105.508L143.815 99.4689Z" fill="#382624"/>
<path id="Vector_40" d="M182.994 177.36L171.423 184.211L180.01 189.195C182.436 187.784 189.379 183.683 191.612 182.364L182.994 177.36Z" fill="white"/>
<path id="Vector_41" d="M170.317 170.011L158.746 176.863L169.617 183.176C171.515 182.08 178.528 177.939 181.228 176.345L170.317 170.011Z" fill="white"/>
<path id="Vector_42" d="M124.277 143.276L112.523 150.026L122.977 156.116C124.632 155.162 131.727 150.97 134.589 149.285L124.277 143.276Z" fill="white"/>
<path id="Vector_43" d="M149.032 157.649L137.461 164.5L146.048 169.484C148.078 168.306 155.051 164.185 157.66 162.653L149.032 157.649Z" fill="white"/>
<path id="Vector_44" d="M136.355 150.29L124.784 157.141L135.655 163.454C136.934 162.724 144.211 158.38 147.266 156.624L136.355 150.29Z" fill="white"/>
<path id="Vector_45" d="M193.378 183.45L181.807 190.301L190.018 195.072C192.485 193.63 199.437 189.53 201.62 188.241L193.378 183.45Z" fill="white"/>
<path id="Vector_46" d="M159.416 163.678L147.845 170.529L156.98 175.807C159.122 174.569 166.115 170.458 168.592 168.976L159.416 163.678Z" fill="white"/>
<path id="Vector_47" d="M203.396 189.215L191.835 196.077L202.706 202.39C204.979 201.07 211.922 196.97 214.307 195.559L203.396 189.215Z" fill="white"/>
<path id="Vector_48" d="M216.073 196.584L204.512 203.435L224.021 214.763L235.764 208.013L216.073 196.584Z" fill="white"/>
<path id="Vector_49" d="M111.031 151.985L99.2771 158.735L114.502 167.555C116.532 166.398 123.475 162.277 126.114 160.724L111.031 151.985Z" fill="white"/>
<path id="Vector_50" d="M140.517 169.149L128.905 176L137.492 180.984C139.786 179.644 146.728 175.553 149.093 174.153L140.517 169.149Z" fill="white"/>
<path id="Vector_51" d="M161.801 181.511L150.22 188.363L161.091 194.676C163.273 193.407 170.226 189.307 172.702 187.845L161.801 181.511Z" fill="white"/>
<path id="Vector_52" d="M150.91 175.178L139.339 182.029L148.474 187.307C150.859 185.916 157.802 181.816 160.076 180.476L150.91 175.178Z" fill="white"/>
<path id="Vector_53" d="M174.478 188.87L162.908 195.721L171.535 200.705C174.184 199.152 181.177 195.031 183.136 193.874L174.478 188.87Z" fill="white"/>
<path id="Vector_54" d="M184.872 194.899L173.301 201.72L181.512 206.49C184.212 204.917 191.216 200.786 193.114 199.66L184.872 194.899Z" fill="white"/>
<path id="Vector_55" d="M127.89 161.79L116.319 168.641L127.19 174.954C128.915 173.939 135.98 169.788 138.801 168.123L127.89 161.79Z" fill="white"/>
<path id="Vector_56" d="M194.88 200.705L183.309 207.556L194.19 213.9C196.707 212.438 203.65 208.328 205.791 207.069L194.88 200.705Z" fill="white"/>
<path id="Vector_57" d="M195.997 214.935L210.765 223.512L222.518 216.762L207.557 208.084L195.997 214.935Z" fill="white"/>
<path id="Vector_58" d="M187.349 213.758L178.742 218.873L188.719 224.649L197.458 219.635L187.349 213.758Z" fill="white"/>
<path id="Vector_59" d="M190.779 225.847L199.265 230.759L208.014 225.765L199.376 220.741L190.779 225.847Z" fill="white"/>
<path id="Vector_60" d="M96.5265 161.018L87.5235 166.022L97.7445 171.94L106.585 166.865L96.5265 161.018Z" fill="white"/>
<path id="Vector_61" d="M108.493 167.971L99.805 173.127L110.716 179.451L119.547 174.386L108.493 167.971Z" fill="white"/>
<path id="Vector_62" d="M121.465 175.503L112.787 180.649L176.661 217.666L185.42 212.641L121.465 175.503Z" fill="white"/>
<path id="Vector_63" d="M164.686 68.4815C170.671 68.3123 175.297 60.2257 175.02 50.4197C174.743 40.6136 169.666 32.8015 163.682 32.9707C157.697 33.14 153.071 41.2265 153.348 51.0326C153.626 60.8386 158.702 68.6508 164.686 68.4815Z" fill="#E2E2E2"/>
<path id="Vector_64" d="M172.688 48.6887C173.497 39.6971 169.3 31.9713 163.313 31.4324C157.326 30.8936 151.817 37.7459 151.007 46.7374C150.198 55.729 154.395 63.4548 160.382 63.9936C166.369 64.5325 171.878 57.6802 172.688 48.6887Z" fill="#E35541"/>
<path id="Vector_65" d="M165.927 46.2956C166.171 43.6891 164.458 41.3979 162.103 41.1782C159.748 40.9584 157.641 42.8933 157.398 45.4999C157.155 48.1064 158.867 50.3975 161.222 50.6173C163.578 50.837 165.684 48.9022 165.927 46.2956Z" fill="white"/>
<path id="Vector_66" d="M152.362 56.3009C152.362 56.3009 154.899 50.688 159.406 51.3985C163.912 52.109 166.775 54.4435 168.632 60.7872C167.547 62.3732 165.979 63.5672 164.162 64.1925C162.345 64.8177 160.374 64.8409 158.543 64.2585C156.941 63.5375 155.541 62.4352 154.463 61.0481C153.386 59.661 152.664 58.0312 152.362 56.3009Z" fill="white"/>
<path id="Vector_67" d="M175.808 52.7282C175.785 52.664 175.754 52.6027 175.717 52.5455C175.854 52.4155 175.961 52.2575 176.031 52.0824C176.101 51.9072 176.132 51.7189 176.123 51.5305C176.109 51.4045 176.069 51.2827 176.007 51.1727C175.944 51.0627 175.859 50.9668 175.757 50.891C175.852 50.7839 175.911 50.6496 175.925 50.5072C175.939 50.3648 175.908 50.2215 175.836 50.0978C175.764 49.9741 175.655 49.8763 175.524 49.8182C175.394 49.7602 175.248 49.7449 175.108 49.7745C174.093 49.9674 173.464 51.2666 172.936 52.038C172.54 52.6064 172.174 53.1951 171.829 53.7838C171.768 52.9312 171.647 52.0684 171.586 51.2666C171.525 50.4647 170.276 50.414 170.276 51.2666C170.347 52.5516 170.213 53.8397 169.881 55.083C169.752 55.1467 169.635 55.2326 169.535 55.3367C165.852 59.1993 161.239 62.0512 156.137 63.6191C155.882 63.7047 155.662 63.8717 155.511 64.0944C155.361 64.3171 155.287 64.5832 155.302 64.8519C155.317 65.1205 155.42 65.3768 155.594 65.5813C155.769 65.7859 156.006 65.9274 156.269 65.9841C156.287 66.2313 156.38 66.4671 156.536 66.6596C156.692 66.8521 156.904 66.9918 157.142 67.06C157.18 67.2494 157.257 67.4287 157.369 67.5862C157.481 67.7436 157.625 67.8756 157.792 67.9735L156.929 68.349C155.528 68.9377 156.148 71.2519 157.569 70.6632C162.919 68.4277 167.616 64.8728 171.22 60.3305C171.637 59.9347 172.042 59.5388 172.448 59.1227C173.078 58.4832 176.123 55.4281 175.372 54.1187C175.595 53.662 176.031 53.3169 175.808 52.7282Z" fill="#FBB5AD"/>
<path id="Vector_68" d="M154.696 38.4978C153.265 39.0662 152.159 42.1519 152.28 42.8015L153.407 42.233L153.61 42.0098C153.811 40.7952 154.176 39.6137 154.696 38.4978Z" fill="#FBB5AD"/>
<path id="Vector_69" d="M154.889 41.0049C154.812 40.9502 154.726 40.909 154.635 40.8831L154.544 40.8019C153.986 40.3655 153.123 40.9339 152.615 41.2079C151.966 41.5502 151.354 41.9584 150.788 42.4259C150.531 42.7777 150.348 43.1784 150.25 43.6033C150.037 44.1108 149.824 44.6183 149.581 45.1157C149.086 46.1643 148.527 47.1813 147.906 48.1607C146.694 50.0573 145.263 51.8049 143.643 53.3676C142.892 54.0984 144.039 55.2352 144.79 54.5044L145.328 53.9665C145.441 54.0411 145.573 54.0809 145.708 54.0809C145.844 54.0809 145.976 54.0411 146.089 53.9665C146.222 53.8751 146.348 53.7732 146.465 53.662L146.637 53.5199C146.685 53.6438 146.763 53.7539 146.864 53.8404C146.965 53.9268 147.085 53.9868 147.215 54.0149C147.345 54.0431 147.48 54.0386 147.607 54.0018C147.735 53.965 147.852 53.897 147.946 53.8041L148.495 53.2255C148.669 53.1604 148.811 53.0291 148.89 52.8601C148.89 52.8601 148.972 53.9665 148.992 53.936C149.875 53.0022 150.92 50.414 151.803 48.861C151.797 48.7896 151.815 48.7182 151.854 48.658C152.386 47.7359 152.623 46.6736 152.534 45.613C152.532 44.8846 152.597 44.1575 152.727 43.4409L154.168 42.3244C154.513 42.0605 154.889 41.6647 154.818 41.3094C154.861 41.2133 154.885 41.11 154.889 41.0049Z" fill="#FBB5AD"/>
<path id="Vector_70" d="M160.258 61.3455C155.133 62.8477 154.25 62.2793 151.824 62.1981C149.398 62.1169 146.82 58.7167 146.82 58.7167C146.82 58.7167 146.211 51.1143 141.674 57.0622C138.294 61.5079 136.995 74.3781 136.599 80.6102C138.387 81.8389 140.465 82.5805 142.628 82.762C144.02 82.9951 145.429 83.1139 146.84 83.1173C147.708 83.111 148.565 82.9243 149.357 82.5692L151.763 71.4042C155.63 71.6137 159.455 70.5162 162.623 68.2881L160.258 61.3455Z" fill="#00EE3E"/>
<path id="Vector_71" d="M149.205 52.2003C149.205 52.2003 152.504 58.5339 149.205 60.3203C145.906 62.1067 143.389 59.1531 143.115 58.3919C142.949 57.5522 142.991 56.6849 143.237 55.8652C143.483 55.0454 143.925 54.2981 144.525 53.688C145.125 53.0778 145.865 52.6234 146.681 52.3642C147.496 52.105 148.363 52.0487 149.205 52.2003Z" fill="#FBB5AD"/>
<path id="Vector_72" d="M149.489 51.2564C148.657 50.727 147.719 50.384 146.742 50.2508C145.764 50.1177 144.769 50.1976 143.825 50.485C142.164 50.789 140.634 51.5928 139.441 52.7891C139.019 52.5044 138.528 52.3395 138.02 52.312C137.404 52.2659 136.79 52.4159 136.265 52.7404C135.739 53.065 135.331 53.5475 135.097 54.1187C134.905 54.6562 134.901 55.2426 135.086 55.7826C135.27 56.3226 135.631 56.7843 136.112 57.0927C136.856 57.4826 137.724 57.5629 138.527 57.316V57.4682C138.639 58.6659 137.512 59.2648 137.066 60.2798C136.85 60.7422 136.789 61.262 136.893 61.7617C137.005 62.259 137.522 62.7767 137.512 63.3045C137.421 63.6806 137.24 64.0289 136.984 64.3195C136.752 64.6645 136.561 65.0359 136.416 65.4258C138.893 66.5712 141.687 66.8327 144.333 66.1667C147.165 65.6708 149.761 64.2715 151.732 62.1778C151.618 61.9179 151.448 61.6859 151.235 61.4978C150.793 61.2004 150.32 60.952 149.824 60.7568C149.124 60.3508 149.824 59.1227 149.824 58.4629C149.824 57.3261 148.951 56.8491 148.007 56.4329C147.327 56.1487 147.297 55.7326 147.287 55.0424C147.225 54.4935 147.339 53.9393 147.611 53.459C147.816 53.4885 148.024 53.4454 148.2 53.3372C148.553 53.1243 148.932 52.9572 149.327 52.8398C149.525 52.7685 149.687 52.6221 149.778 52.4322C149.87 52.2423 149.882 52.0241 149.814 51.8248C149.814 51.71 149.784 51.5972 149.727 51.4975C149.67 51.3978 149.588 51.3147 149.489 51.2564Z" fill="#56403D"/>
<path id="Vector_73" d="M146.992 53.7838C148.049 53.5523 149.072 53.1874 150.037 52.6977C150.037 52.5962 150.352 48.6377 143.359 50.0181C136.365 51.3985 139.684 59.752 139.684 59.752" fill="#56403D"/>
<path id="Vector_74" d="M213.302 62.7462L262.246 91.5519C262.748 91.8513 263.161 92.281 263.44 92.7956C263.718 93.3101 263.853 93.8904 263.829 94.4751L262.134 139.044C262.12 139.596 261.963 140.136 261.677 140.609C261.392 141.083 260.988 141.474 260.506 141.744C260.024 142.014 259.48 142.154 258.927 142.151C258.374 142.147 257.832 142 257.353 141.723L210.105 114.176C209.615 113.889 209.209 113.478 208.928 112.984C208.647 112.491 208.499 111.933 208.501 111.365V65.5476C208.495 64.9829 208.638 64.4265 208.917 63.9352C209.195 63.4439 209.599 63.0352 210.087 62.7505C210.575 62.4659 211.129 62.3156 211.694 62.3148C212.259 62.314 212.814 62.4629 213.302 62.7462Z" stroke="#56403D" stroke-width="1.015" stroke-miterlimit="10" stroke-linecap="round" stroke-dasharray="3.09 5.14"/>
<path id="Vector_75" d="M243.478 50.1906C241.519 49.2873 236.871 46.222 231.004 49.0437C225.137 51.8654 219.575 57.0825 225.635 72.4496C227.591 73.2004 229.753 73.222 231.725 72.5105C231.725 72.5105 230.476 59.0617 232.364 57.4986L252.075 68.4505C252.294 71.0107 251.76 73.579 250.539 75.84C249.318 78.1011 247.464 79.9565 245.204 81.1786L250.634 86.1623C255.08 86.0912 264.844 71.9522 261.799 61.9037C258.754 51.8552 242.128 49.673 242.128 49.673" fill="#6DE1FC"/>
<path id="Vector_76" d="M243.478 50.1906C241.519 49.2873 236.871 46.222 231.004 49.0437C225.137 51.8654 219.575 57.0825 225.635 72.4496C227.591 73.2004 229.753 73.222 231.725 72.5105C231.725 72.5105 230.476 59.0617 232.364 57.4986L252.075 68.4505C252.294 71.0107 251.76 73.579 250.539 75.84C249.318 78.1011 247.464 79.9565 245.204 81.1786L250.634 86.1623C255.08 86.0912 264.844 71.9522 261.799 61.9037C258.754 51.8552 242.128 49.673 242.128 49.673" fill="#BE6B3D"/>
<path id="Vector_77" d="M249.761 49.3584C248.421 50.8403 245.853 50.1704 244.158 49.7847C242.128 49.3178 239.743 48.0693 239.926 45.6232C239.926 45.2578 239.378 45.2578 239.347 45.6232C239.154 48.1708 241.479 49.6832 243.681 50.2617C245.64 50.7489 248.604 51.4899 250.167 49.7644C250.411 49.47 250.005 49.0843 249.761 49.3584Z" fill="#009245"/>
<path id="Vector_78" d="M238.799 44.0803C238.799 44.0803 238.799 56.5547 243.377 57.3667C248.452 58.2599 251.233 52.5454 251.233 52.5454C251.233 52.5454 251.882 41.5225 246.878 40.5583C241.874 39.594 238.951 42.4868 238.799 44.0803Z" fill="#FBB5AD"/>
<path id="Vector_79" d="M242.646 52.515C242.529 52.5218 242.411 52.5045 242.301 52.4643C242.398 51.3001 242.554 50.1415 242.768 48.993C242.779 48.9097 242.758 48.8254 242.708 48.7576C242.658 48.6898 242.584 48.6439 242.502 48.6294C242.419 48.615 242.334 48.6331 242.264 48.6801C242.195 48.7271 242.146 48.7992 242.128 48.8813C241.896 50.1098 241.73 51.3499 241.631 52.5962C241.621 52.6671 241.633 52.7393 241.666 52.803C241.698 52.8666 241.75 52.9185 241.814 52.9515C242.081 53.1081 242.387 53.1855 242.697 53.1748C243.123 53.124 243.072 52.515 242.646 52.515Z" fill="#56403D"/>
<path id="Vector_80" d="M244.757 52.7484C244.576 53.188 244.232 53.5399 243.796 53.7294C243.36 53.9189 242.867 53.9311 242.423 53.7634C242.159 53.6721 242.047 54.0882 242.311 54.1796C242.843 54.3741 243.429 54.3609 243.952 54.1427C244.475 53.9245 244.897 53.5173 245.133 53.0022C245.254 52.718 244.879 52.515 244.757 52.7484Z" fill="#56403D"/>
<path id="Vector_81" d="M244.189 50.9824C244.103 50.9824 244.02 51.0166 243.959 51.0775C243.898 51.1384 243.864 51.221 243.864 51.3072C243.864 51.3933 243.898 51.4759 243.959 51.5368C244.02 51.5977 244.103 51.632 244.189 51.632C244.275 51.632 244.357 51.5977 244.418 51.5368C244.479 51.4759 244.513 51.3933 244.513 51.3072C244.513 51.221 244.479 51.1384 244.418 51.0775C244.357 51.0166 244.275 50.9824 244.189 50.9824Z" fill="#56403D"/>
<path id="Vector_82" d="M240.159 50.1095C240.073 50.1095 239.99 50.1437 239.929 50.2046C239.869 50.2655 239.834 50.3481 239.834 50.4343C239.834 50.5204 239.869 50.603 239.929 50.6639C239.99 50.7248 240.073 50.7591 240.159 50.7591C240.245 50.7591 240.328 50.7248 240.389 50.6639C240.45 50.603 240.484 50.5204 240.484 50.4343C240.484 50.3481 240.45 50.2655 240.389 50.2046C240.328 50.1437 240.245 50.1095 240.159 50.1095Z" fill="#56403D"/>
<path id="Vector_83" d="M247.66 51.3071C247.66 51.3071 248.868 46.5163 250.208 48.0997C251.547 49.6831 248.036 53.124 248.036 53.124" fill="#FBB5AD"/>
<path id="Vector_84" d="M248.908 39.0054C248.908 39.0054 253.374 39.4824 254.674 43.0654C255.973 46.6483 252.644 53.6924 250.238 54.7988L253.141 48.587L252.999 44.395L248.908 39.0054Z" fill="#5C2E2E"/>
<path id="Vector_85" d="M254.603 44.6386C254.237 42.1518 252.573 40.944 250.431 39.6651L249.893 39.3809C250.323 39.0444 250.67 38.6139 250.908 38.1223C250.937 38.0727 250.952 38.0164 250.952 37.9592C250.951 37.9019 250.936 37.8457 250.907 37.7962C250.878 37.7468 250.837 37.7058 250.787 37.6775C250.737 37.6492 250.681 37.6346 250.624 37.6351C250.342 37.6463 250.065 37.7162 249.812 37.8403C249.559 37.9644 249.334 38.1399 249.152 38.3557C248.897 37.8425 248.554 37.3786 248.137 36.9855C248.096 36.9468 248.045 36.9192 247.991 36.9053C247.936 36.8913 247.879 36.8914 247.824 36.9056C247.769 36.9198 247.719 36.9476 247.678 36.9864C247.637 37.0252 247.606 37.0738 247.589 37.1276C247.491 37.3685 247.448 37.6281 247.462 37.8878C247.476 38.1475 247.547 38.4008 247.67 38.6298C245.424 38.1606 243.084 38.5212 241.083 39.6448C240.343 40.0618 239.71 40.6457 239.235 41.35C238.626 41.2856 238.01 41.3947 237.459 41.6646C236.869 41.9395 236.385 42.3996 236.081 42.975C235.777 43.5504 235.669 44.2095 235.774 44.8517C235.981 45.5141 236.439 46.0691 237.05 46.3974C237.661 46.7257 238.376 46.8012 239.043 46.6077C239.737 46.4791 240.387 46.1751 240.931 45.7246C240.525 46.4047 240.322 47.2776 241.641 47.5821C243.935 48.1099 245.021 46.7396 245.163 47.8866C245.285 48.8204 246.574 49.338 247.498 49.3583C247.569 49.5004 247.741 49.876 247.944 50.3733C248.406 50.2207 248.899 50.1927 249.375 50.2921C249.412 50.2512 249.458 50.2196 249.509 50.1999C249.56 50.1802 249.616 50.173 249.67 50.179C249.725 50.1849 249.777 50.2038 249.823 50.2341C249.869 50.2644 249.907 50.3052 249.934 50.353C250.725 51.7131 250.543 53.195 250.238 54.7683C251.492 53.7103 252.526 52.4172 253.283 50.962C254.333 49.029 254.792 46.8302 254.603 44.6386ZM248.107 37.9497L248.198 38.0918C248.193 38.1255 248.193 38.1597 248.198 38.1933C248.198 38.2948 248.279 38.4065 248.32 38.508C248.203 38.3429 248.129 38.1509 248.107 37.9497Z" fill="#5C2E2E"/>
<path id="Vector_86" d="M272.802 104.28L301.922 121.261C302.191 121.419 302.414 121.644 302.569 121.915C302.724 122.185 302.805 122.492 302.805 122.804C302.805 123.118 302.722 123.428 302.565 123.7C302.407 123.972 302.18 124.198 301.907 124.355C301.634 124.512 301.325 124.593 301.01 124.592C300.695 124.59 300.387 124.506 300.115 124.347L271.005 107.467C270.734 107.311 270.509 107.086 270.352 106.815C270.195 106.544 270.113 106.237 270.112 105.924V105.823C270.111 105.508 270.194 105.199 270.352 104.926C270.51 104.654 270.736 104.428 271.009 104.272C271.282 104.115 271.592 104.033 271.907 104.035C272.221 104.036 272.53 104.121 272.802 104.28Z" fill="#FDC49A"/>
<path id="Vector_87" d="M272.802 113.415L301.922 130.396C302.191 130.554 302.414 130.779 302.569 131.05C302.724 131.32 302.805 131.627 302.805 131.939C302.805 132.253 302.722 132.563 302.565 132.835C302.407 133.107 302.18 133.333 301.907 133.49C301.634 133.647 301.325 133.728 301.01 133.727C300.695 133.725 300.387 133.641 300.115 133.482L271.005 116.653C270.734 116.496 270.509 116.272 270.352 116.001C270.195 115.73 270.113 115.423 270.112 115.11V115.009C270.102 114.69 270.179 114.374 270.332 114.094C270.486 113.815 270.712 113.581 270.987 113.419C271.261 113.256 271.575 113.17 271.894 113.169C272.213 113.169 272.526 113.253 272.802 113.415Z" fill="#FDC49A"/>
<path id="Vector_88" d="M272.802 122.641L301.922 139.622C302.191 139.78 302.414 140.005 302.569 140.276C302.724 140.547 302.805 140.853 302.805 141.165C302.805 141.48 302.722 141.789 302.565 142.061C302.407 142.334 302.18 142.56 301.907 142.716C301.634 142.873 301.325 142.955 301.01 142.953C300.695 142.952 300.387 142.867 300.115 142.708L271.005 125.828C270.734 125.672 270.509 125.447 270.352 125.176C270.195 124.906 270.113 124.599 270.112 124.286V124.184C270.111 123.869 270.194 123.56 270.352 123.288C270.51 123.015 270.736 122.79 271.009 122.633C271.282 122.476 271.592 122.395 271.907 122.396C272.221 122.398 272.53 122.482 272.802 122.641Z" fill="#FDC49A"/>
<path id="Vector_89" d="M272.802 131.817L301.922 148.798C302.191 148.956 302.414 149.181 302.569 149.452C302.724 149.722 302.805 150.029 302.805 150.341C302.805 150.655 302.722 150.965 302.565 151.237C302.407 151.509 302.18 151.735 301.907 151.892C301.634 152.048 301.325 152.13 301.01 152.129C300.695 152.127 300.387 152.043 300.115 151.883L271.005 135.014C270.734 134.858 270.509 134.633 270.352 134.362C270.195 134.091 270.113 133.784 270.112 133.471V133.37C270.11 133.054 270.191 132.744 270.348 132.47C270.505 132.196 270.732 131.969 271.005 131.811C271.278 131.653 271.588 131.571 271.904 131.572C272.22 131.573 272.529 131.657 272.802 131.817Z" fill="#FAEDD4"/>
<path id="Vector_90" d="M199.701 72.5308V101.925L176.955 88.8926V59.752L199.701 72.5308Z" fill="#E35541"/>
<path id="Vector_91" d="M179.584 88.8926V96.0788L185.38 91.0342L179.584 88.8926Z" fill="#E35541"/>
<path id="Vector_92" d="M185.928 75.5047L180.853 78.6309C180.695 78.724 180.581 78.8756 180.536 79.0526C180.49 79.2295 180.516 79.4174 180.609 79.5749L184.568 84.9645C185.085 85.675 186.283 84.9645 185.755 84.2743L181.746 78.905L181.502 79.8489L186.577 76.7227C187.328 76.266 186.638 75.0683 185.887 75.5352L185.928 75.5047Z" fill="white"/>
<path id="Vector_93" d="M189.369 78.2858L193.581 84.2439L193.824 83.3L188.668 85.8781C187.876 86.2739 188.577 87.4615 189.358 87.0656L194.515 84.4875C194.672 84.3945 194.786 84.2428 194.832 84.0659C194.877 83.8889 194.851 83.7011 194.758 83.5436L190.546 77.5855C190.038 76.8648 188.841 77.5855 189.358 78.2757L189.369 78.2858Z" fill="white"/>
<path id="Vector_94" d="M301.831 111.06C302.733 111.06 303.465 110.265 303.465 109.284C303.465 108.303 302.733 107.508 301.831 107.508C300.928 107.508 300.196 108.303 300.196 109.284C300.196 110.265 300.928 111.06 301.831 111.06Z" fill="#155A93"/>
<path id="Vector_95" d="M296.613 108.391C297.516 108.391 298.248 107.596 298.248 106.615C298.248 105.634 297.516 104.838 296.613 104.838C295.711 104.838 294.979 105.634 294.979 106.615C294.979 107.596 295.711 108.391 296.613 108.391Z" fill="#659FE4"/>
<path id="Vector_96" d="M291.396 105.803C292.299 105.803 293.031 105.007 293.031 104.026C293.031 103.045 292.299 102.25 291.396 102.25C290.494 102.25 289.762 103.045 289.762 104.026C289.762 105.007 290.494 105.803 291.396 105.803Z" fill="#C5E9FF"/>
<path id="Vector_97" d="M129.382 127.016L165.13 147.286L178.163 140.587" stroke="white" stroke-width="1.015" stroke-miterlimit="10"/>
<path id="Vector_98" d="M165.019 147.58V155.771" stroke="white" stroke-width="1.015" stroke-miterlimit="10"/>
<path id="Vector_99" d="M139.359 140.82C138.61 140.683 137.91 140.35 137.329 139.856C136.968 139.185 136.82 138.42 136.903 137.663C136.903 136.987 136.903 136.28 136.903 135.542C136.864 135.51 136.831 135.47 136.809 135.424C136.786 135.379 136.773 135.329 136.771 135.278C136.732 134.704 136.732 134.127 136.771 133.553L133.868 133.268C133.366 135.089 132.963 136.936 132.66 138.8C132.742 139.369 135.502 143.144 136.913 143.398C138.324 143.652 142.222 142.383 142.547 141.886C141.491 141.571 140.415 141.236 139.359 140.82Z" fill="#FBB5AD"/>
<path id="Vector_100" d="M159.436 130.508C157.785 130.52 156.138 130.672 154.513 130.964C154.513 130.964 153.955 127.727 154.036 127.564L149.905 127.848C149.905 127.848 149.388 133.857 149.388 134.649C149.388 136.1 151.194 136.567 151.59 136.506C151.875 136.409 152.153 136.294 152.423 136.161C152.273 135.412 152.194 134.651 152.189 133.888C152.189 133.542 152.28 133.289 152.615 133.167C153.41 133.064 154.217 133.137 154.98 133.38C155.721 133.522 156.452 133.695 157.193 133.827C158.34 133.333 159.394 132.646 160.309 131.797C160.573 130.995 160.908 130.802 159.436 130.508Z" fill="#FBB5AD"/>
<path id="Vector_101" d="M160.817 130.772L160.715 130.66C160.4 130.355 159.568 130.386 159.182 130.365C157.608 130.376 156.04 130.577 154.513 130.964C154.513 130.964 158.259 130.457 158.401 131.127C158.461 131.395 158.459 131.675 158.394 131.942C158.329 132.21 158.203 132.459 158.025 132.67C156.462 134.06 154.016 132.527 152.494 131.868L149.662 130.65L149.479 132.954C149.381 134.007 149.381 135.067 149.479 136.121C149.672 136.445 151.347 137.328 151.702 137.136C152.057 136.943 153.153 136.293 153.153 136.293L152.93 133.512C152.93 133.512 155.265 134.527 156.371 134.243C157.213 134.04 161.791 132.071 160.817 130.772Z" fill="#56403D"/>
<path id="Vector_102" d="M135.35 138.922C135.35 138.922 136.873 143.672 137.38 143.997C137.888 144.322 143.775 142.444 142.902 141.327C142.344 140.617 138.842 140.627 138.507 140.536C138.507 140.536 140.364 141.145 140.364 141.439C139.673 142.052 138.821 142.454 137.908 142.596C137.786 142.373 135.249 138.211 135.249 138.211L132.863 137.369L130.935 141.723L132.6 142.434C132.6 142.434 133.107 143.763 133.28 143.763C133.851 142.988 134.363 142.17 134.812 141.317C134.922 141.92 135.117 142.505 135.391 143.053C135.624 143.226 137.563 144.819 138.436 143.601L136.802 141.764" fill="#56403D"/>
<path id="Vector_103" d="M130.935 141.723L131.24 142.809L133.28 143.763V141.723L132.102 141.317" fill="#56403D"/>
<path id="Vector_104" d="M147.49 129.482C149.282 129.9 151.147 129.897 152.938 129.473C154.73 129.048 156.398 128.214 157.812 127.036C157.873 120.946 158.441 115.394 158.259 109.284C157.964 99.3065 156.513 89.5117 149.51 81.7267L136.761 79.7677C131.585 89.6132 130.529 134.649 130.529 134.649C130.529 134.649 137.025 138.79 141.968 136.76L143.886 99.205C143.886 99.205 147.266 103.204 147.875 105.437C148.322 107.122 147.408 121.941 147.49 129.482Z" fill="#999A1C"/>
<path id="Vector_105" d="M93.5323 116.277C105.96 116.277 116.035 111.297 116.035 105.153C116.035 99.0091 105.96 94.0285 93.5323 94.0285C81.1044 94.0285 71.0297 99.0091 71.0297 105.153C71.0297 111.297 81.1044 116.277 93.5323 116.277Z" fill="#6DE1FC"/>
<path id="Vector_106" d="M93.5323 116.277C105.96 116.277 116.035 111.297 116.035 105.153C116.035 99.0091 105.96 94.0285 93.5323 94.0285C81.1044 94.0285 71.0297 99.0091 71.0297 105.153C71.0297 111.297 81.1044 116.277 93.5323 116.277Z" fill="#663535"/>
<path id="Vector_107" d="M330.657 212.266L312.468 223.035C312.468 223.035 318.101 232.921 331.996 238.757L353.22 227.379" fill="url(#paint3_linear)"/>
<path id="Vector_108" d="M345.831 228.232C355.147 228.232 362.7 222.91 362.7 216.346C362.7 209.782 355.147 204.46 345.831 204.46C336.514 204.46 328.962 209.782 328.962 216.346C328.962 222.91 336.514 228.232 345.831 228.232Z" fill="#00EE3E"/>
<path id="Vector_109" d="M345.821 214.509C352.8 214.509 358.457 212.191 358.457 209.332C358.457 206.474 352.8 204.156 345.821 204.156C338.842 204.156 333.184 206.474 333.184 209.332C333.184 212.191 338.842 214.509 345.821 214.509Z" fill="#974C26"/>
<path id="Vector_110" d="M345.354 200.705C345.354 198.37 345.273 196.036 345.09 193.712C345.042 193.109 344.988 192.507 344.927 191.905L344.796 190.717C344.745 190.372 344.613 189.469 344.613 189.51C344.532 189.036 344.45 188.562 344.369 188.089C342.989 180.168 339.911 172.641 335.346 166.022C333.631 170.111 332.778 174.51 332.839 178.943C332.839 180.222 332.94 181.501 333.052 182.78C333.052 183.125 333.052 183.267 333.052 183.318C333.052 183.369 333.052 183.237 333.103 183.531C333.204 184.16 333.326 184.79 333.448 185.409C333.956 187.789 334.635 190.129 335.478 192.412C336.227 194.511 337.14 196.547 338.208 198.502C339.355 200.705 340.604 202.857 341.943 204.948C342.958 206.582 343.973 208.054 344.988 209.444C345.212 206.541 345.354 203.618 345.354 200.705ZM338.716 174.467C338.761 174.165 338.74 173.857 338.655 173.564C338.98 173.895 339.294 174.234 339.599 174.579C339.312 174.496 339.014 174.459 338.716 174.467Z" fill="#999A1C"/>
<path id="Vector_111" d="M349.708 202.502C350.977 200.543 352.164 198.533 353.271 196.472C353.555 195.938 353.836 195.4 354.113 194.859L354.641 193.783L355.138 192.666C355.328 192.226 355.514 191.783 355.697 191.337C358.815 183.929 360.293 175.933 360.031 167.9C356.363 170.408 353.253 173.646 350.896 177.411C350.216 178.497 349.596 179.613 348.998 180.75L348.744 181.227C348.744 181.227 348.744 181.166 348.673 181.44C348.419 182.029 348.175 182.618 347.952 183.206C347.087 185.478 346.384 187.808 345.851 190.179C345.34 192.352 345.001 194.561 344.836 196.787C344.603 199.264 344.501 201.75 344.491 204.227C344.491 206.166 344.491 207.942 344.613 209.647C346.43 207.343 348.145 204.958 349.708 202.502ZM358.295 176.842C358.496 176.613 358.645 176.343 358.731 176.051C358.826 176.504 358.907 176.961 358.975 177.421C358.78 177.194 358.55 176.999 358.295 176.842Z" fill="#999A1C"/>
<path id="Vector_112" d="M349.617 208.318C350.929 207.641 352.219 206.94 353.484 206.216L354.499 205.618L355.128 205.212L355.758 204.775L356.488 204.237C360.563 201.247 363.942 197.41 366.395 192.991C363.612 193.17 360.897 193.919 358.417 195.194C357.696 195.559 357.006 195.965 356.316 196.381L356.021 196.554C356.021 196.554 356.021 196.554 355.92 196.645C355.595 196.878 355.27 197.122 354.956 197.366C353.755 198.299 352.622 199.317 351.566 200.411C350.589 201.418 349.693 202.501 348.886 203.648C347.962 204.907 347.1 206.216 346.298 207.556C345.668 208.571 345.12 209.586 344.613 210.52C346.288 209.84 347.962 209.14 349.617 208.318ZM362.538 197.244C362.722 197.187 362.892 197.09 363.035 196.96C362.94 197.237 362.839 197.511 362.731 197.782C362.695 197.593 362.63 197.412 362.538 197.244Z" fill="#999A1C"/>
<path id="Vector_113" d="M345.354 200.705C345.354 198.37 345.273 196.036 345.09 193.712C345.042 193.109 344.988 192.507 344.927 191.905L344.796 190.717C344.745 190.372 344.613 189.469 344.613 189.51C344.532 189.036 344.45 188.562 344.369 188.089C342.989 180.168 339.911 172.641 335.346 166.022C333.631 170.111 332.778 174.51 332.839 178.943C332.839 180.222 332.94 181.501 333.052 182.78C333.052 183.125 333.052 183.267 333.052 183.318C333.052 183.369 333.052 183.237 333.103 183.531C333.204 184.16 333.326 184.79 333.448 185.409C333.956 187.789 334.635 190.129 335.478 192.412C336.227 194.511 337.14 196.547 338.208 198.502C339.355 200.705 340.604 202.857 341.943 204.948C342.958 206.582 343.973 208.054 344.988 209.444C345.212 206.541 345.354 203.618 345.354 200.705ZM338.716 174.467C338.761 174.165 338.74 173.857 338.655 173.564C338.98 173.895 339.294 174.234 339.599 174.579C339.312 174.496 339.014 174.459 338.716 174.467Z" fill="#999A1C"/>
<path id="Vector_114" d="M349.708 202.502C350.977 200.543 352.164 198.533 353.271 196.472C353.555 195.938 353.836 195.4 354.113 194.859L354.641 193.783L355.138 192.666C355.328 192.226 355.514 191.783 355.697 191.337C358.815 183.929 360.293 175.933 360.031 167.9C356.363 170.408 353.253 173.646 350.896 177.411C350.216 178.497 349.596 179.613 348.998 180.75L348.744 181.227C348.744 181.227 348.744 181.166 348.673 181.44C348.419 182.029 348.175 182.618 347.952 183.206C347.087 185.478 346.384 187.808 345.851 190.179C345.34 192.352 345.001 194.561 344.836 196.787C344.603 199.264 344.501 201.75 344.491 204.227C344.491 206.166 344.491 207.942 344.613 209.647C346.43 207.343 348.145 204.958 349.708 202.502ZM358.295 176.842C358.496 176.613 358.645 176.343 358.731 176.051C358.826 176.504 358.907 176.961 358.975 177.421C358.78 177.194 358.55 176.999 358.295 176.842Z" fill="#999A1C"/>
<path id="Vector_115" d="M349.617 208.318C350.929 207.641 352.219 206.94 353.484 206.216L354.499 205.618L355.128 205.212L355.758 204.775L356.488 204.237C360.563 201.247 363.942 197.41 366.395 192.991C363.612 193.17 360.897 193.919 358.417 195.194C357.696 195.559 357.006 195.965 356.316 196.381L356.021 196.554C356.021 196.554 356.021 196.554 355.92 196.645C355.595 196.878 355.27 197.122 354.956 197.366C353.755 198.299 352.622 199.317 351.566 200.411C350.589 201.418 349.693 202.501 348.886 203.648C347.962 204.907 347.1 206.216 346.298 207.556C345.668 208.571 345.12 209.586 344.613 210.52C346.288 209.84 347.962 209.14 349.617 208.318ZM362.538 197.244C362.722 197.187 362.892 197.09 363.035 196.96C362.94 197.237 362.839 197.511 362.731 197.782C362.695 197.593 362.63 197.412 362.538 197.244Z" fill="#999A1C"/>
<g id="mujer 1">
<path id="Vector_116" d="M260.114 187.994C252.796 175.489 245.904 187.71 245.904 187.71C243.065 191.592 240.855 195.898 239.357 200.469C237.673 206.213 237.683 224.829 238.515 230.37C241.56 231.548 248.371 231.193 251.548 230.289V207.959C251.56 207.897 251.593 207.841 251.642 207.8C251.691 207.76 251.753 207.738 251.817 207.738C251.88 207.738 251.942 207.76 251.991 207.8C252.04 207.841 252.073 207.897 252.086 207.959L252.238 252.305C257.582 252.503 262.911 251.626 267.909 249.726C267.909 249.726 266.996 199.758 260.114 187.994Z" fill="#F3A71C"/>
<path id="Vector_117" d="M265.291 175.53C265.104 174.897 264.793 174.307 264.377 173.794C263.73 173.042 263.024 172.343 262.266 171.703C262.08 171.555 261.934 171.364 261.84 171.145C261.525 170.191 262.642 168.729 262.489 167.562C262.256 165.837 261.16 165.258 260.084 164.121C259.501 163.539 259.12 162.785 258.998 161.97C258.38 160.727 257.904 159.42 257.577 158.072C256.795 155.869 255.547 153.433 253.182 152.632C251.874 152.213 250.474 152.171 249.143 152.513C247.813 152.854 246.606 153.563 245.661 154.56C244.037 156.418 244.351 158.945 244.169 161.269C244.274 161.48 244.346 161.706 244.382 161.939C244.696 164.192 241.733 164.294 241.459 166.08C241.422 166.419 241.439 166.762 241.509 167.095C241.74 168.376 242.292 169.577 243.113 170.587C245.143 173.327 240.423 174.738 240.444 177.276C240.501 178.19 240.798 179.074 241.306 179.836C241.814 180.599 242.514 181.214 243.336 181.62C247.341 183.609 251.918 184.13 256.267 183.092C259.515 182.351 266.407 179.651 265.291 175.53ZM247.224 171.348C247.224 171.297 247.224 171.236 247.224 171.186H247.406L247.224 171.348Z" fill="#56403D"/>
<path id="Vector_118" d="M243.539 178.758L244.828 189.994C244.828 189.994 254.085 193.495 260.936 189.994V178.605" fill="#F5604B"/>
<path id="Vector_119" d="M265.991 155.331C265.69 157.707 264.863 159.985 263.568 161.999C262.274 164.013 260.546 165.713 258.511 166.974L259.82 179.509C265.676 175.743 271.848 161.746 272.751 158.092C271.862 157.209 270.807 156.511 269.647 156.037C268.486 155.563 267.244 155.324 265.991 155.331Z" fill="#F5604B"/>
<path id="Vector_120" d="M232.222 149.373C230.019 149.911 228.517 151.068 226.609 152.286C227.309 154.743 234.983 173.926 244.635 177.986L245.407 164.335C245.407 164.335 241.134 163.929 232.222 149.373Z" fill="#F5604B"/>
<path id="Vector_121" d="M232.171 150.622C232.049 150.348 231.928 150.074 231.816 149.79C231.752 149.643 231.728 149.482 231.745 149.323C231.834 148.894 231.895 148.46 231.928 148.023C231.901 146.632 231.623 145.256 231.106 143.963C231.042 143.758 230.931 143.57 230.782 143.414C230.633 143.258 230.45 143.139 230.247 143.066C230.045 142.994 229.828 142.969 229.614 142.994C229.4 143.02 229.195 143.094 229.015 143.212L228.639 142.532C227.939 141.294 227.188 139.163 225.594 139C225.471 138.998 225.35 139.026 225.24 139.081C225.13 139.136 225.035 139.217 224.963 139.316C224.891 139.416 224.845 139.532 224.827 139.654C224.81 139.775 224.822 139.899 224.863 140.015C225.168 140.817 225.482 141.609 225.807 142.39C225.739 142.317 225.656 142.259 225.565 142.22C225.473 142.18 225.374 142.16 225.274 142.16C225.174 142.16 225.076 142.18 224.984 142.22C224.892 142.259 224.81 142.317 224.741 142.39C224.554 142.58 224.43 142.823 224.384 143.086C224.339 143.349 224.375 143.62 224.488 143.862H224.295C224.125 143.775 223.938 143.727 223.747 143.72C223.594 143.729 223.446 143.771 223.311 143.843C223.176 143.915 223.058 144.015 222.965 144.136C222.86 144.28 222.79 144.447 222.762 144.624C222.733 144.8 222.747 144.981 222.803 145.151H222.671C222.518 145.207 222.382 145.299 222.272 145.419C222.163 145.54 222.084 145.684 222.042 145.841C221.986 146.054 221.986 146.278 222.042 146.491C221.96 147.283 226.102 151.16 226.102 151.16L228.558 153.85L232.679 151.891C232.74 151.749 232.222 150.734 232.171 150.622Z" fill="#FBB5AD"/>
<path id="Vector_122" d="M273.045 150.825C273.024 150.754 272.988 150.688 272.94 150.632C272.892 150.575 272.832 150.529 272.766 150.497C272.699 150.465 272.626 150.446 272.552 150.443C272.478 150.44 272.404 150.453 272.335 150.48C272.363 150.142 272.363 149.802 272.335 149.465C272.335 148.988 272.243 148.308 271.726 148.105C271.575 148.049 271.411 148.044 271.257 148.089C271.103 148.135 270.969 148.23 270.873 148.358C270.815 148.047 270.73 147.741 270.619 147.445C270.585 147.334 270.516 147.237 270.423 147.168C270.33 147.098 270.218 147.06 270.102 147.059C269.523 147.059 269.229 147.526 269.087 148.074C269.087 148.023 268.874 147.831 268.823 147.8C268.728 147.731 268.615 147.693 268.498 147.688C268.28 147.675 268.064 147.74 267.889 147.871C267.721 148.036 267.62 148.256 267.605 148.49C267.559 148.878 267.559 149.27 267.605 149.658C267.605 150.135 267.706 150.602 267.737 151.079C267.767 151.556 267.737 151.748 267.737 152.094C267.29 151.231 266.661 150.155 265.93 150.662C265.199 151.17 265.839 151.86 266.042 152.337C266.46 153.283 266.956 154.193 267.524 155.057C267.447 155.483 267.342 155.904 267.209 156.316C268.567 156.87 269.88 157.529 271.137 158.285C271.54 156.937 272.025 155.615 272.589 154.327C273.199 153.266 273.363 152.007 273.045 150.825Z" fill="#FBB5AD"/>
<path id="Vector_123" d="M247.224 229.031L242.534 230.34C242.534 230.452 241.763 234.674 242.352 235.303C243.101 235.836 243.88 236.324 244.686 236.765C244.681 238.24 244.765 239.715 244.94 241.18C245.218 241.232 245.504 241.232 245.782 241.18C245.975 239.647 246.239 236.531 246.239 236.531C246.239 236.531 247.609 236.054 247.691 235.628C247.772 235.202 247.224 229.031 247.224 229.031Z" fill="#C67445"/>
<path id="Vector_124" d="M262.652 248.326L256.795 249.96C256.795 250.102 255.831 255.37 256.562 256.151C257.293 256.933 259.526 257.836 259.475 257.978C259.468 259.817 259.573 261.654 259.789 263.48C260.125 263.54 260.469 263.54 260.804 263.48C261.038 261.561 261.373 257.674 261.373 257.674C261.373 257.674 263.088 257.075 263.18 256.547C263.271 256.019 262.652 248.326 262.652 248.326Z" fill="#C67445"/>
<path id="Vector_125" d="M242.808 234.979C242.869 235.222 241.936 239.881 242.524 240.054C243.77 240.17 245.024 240.17 246.27 240.054C246.505 238.371 246.647 236.677 246.696 234.979" fill="#56403D"/>
<path id="Vector_126" d="M242.524 240.053C241.831 239.217 241.242 238.301 240.768 237.323C240.657 236.674 242.24 233.578 242.534 233.669C243.597 234.202 244.592 234.86 245.498 235.628" fill="#C67445"/>
<path id="Vector_127" d="M257.13 255.695C257.201 255.999 256.034 261.785 256.775 262.049C258.331 262.194 259.898 262.194 261.454 262.049C261.698 262.049 261.982 255.695 261.982 255.695" fill="#56403D"/>
<path id="Vector_128" d="M256.775 262.049C256.775 262.049 254.745 259.46 254.582 258.638C254.42 257.816 256.42 253.959 256.795 254.071C258.12 254.736 259.36 255.558 260.49 256.517" fill="#C67445"/>
<path id="Vector_129" d="M251.548 207.939L241.256 205.645L251.04 213.278L251.548 207.939Z" fill="#56403D"/>
</g>
</g>
<defs>
<linearGradient id="paint0_linear" x1="90.609" y1="132.446" x2="72.5725" y2="154.979" gradientUnits="userSpaceOnUse">
<stop stop-color="#D4A397"/>
<stop offset="0.99" stop-color="#FFD6A9"/>
</linearGradient>
<linearGradient id="paint1_linear" x1="19877" y1="14852.3" x2="19614.6" y2="15684.9" gradientUnits="userSpaceOnUse">
<stop stop-color="#D4A397"/>
<stop offset="0.99" stop-color="#FFD6A9"/>
</linearGradient>
<linearGradient id="paint2_linear" x1="10493" y1="6885.84" x2="9795.09" y2="7750.87" gradientUnits="userSpaceOnUse">
<stop stop-color="#D4A397"/>
<stop offset="0.99" stop-color="#FFD6A9"/>
</linearGradient>
<linearGradient id="paint3_linear" x1="14084.3" y1="5779.19" x2="13664.7" y2="6487.18" gradientUnits="userSpaceOnUse">
<stop stop-color="#D4A397"/>
<stop offset="0.99" stop-color="#FFD6A9"/>
</linearGradient>
</defs>
</svg>
